<?xml version="1.0" encoding="UTF-8" standalone="no"?>
<!-- Created with Inkscape (http://www.inkscape.org/) -->

<svg
   width="195.748mm"
   height="60.251072mm"
   viewBox="0 0 195.748 60.251072"
   version="1.1"
   id="svg5"
   inkscape:version="1.3 (0e150ed6c4, 2023-07-21)"
   sodipodi:docname="Logo.svg"
   xml:space="preserve"
   xmlns:inkscape="http://www.inkscape.org/namespaces/inkscape"
   xmlns:sodipodi="http://sodipodi.sourceforge.net/DTD/sodipodi-0.dtd"
   xmlns="http://www.w3.org/2000/svg"
   xmlns:svg="http://www.w3.org/2000/svg"><sodipodi:namedview
     id="namedview7"
     pagecolor="#ffffff"
     bordercolor="#000000"
     borderopacity="0.25"
     inkscape:showpageshadow="2"
     inkscape:pageopacity="0.0"
     inkscape:pagecheckerboard="0"
     inkscape:deskcolor="#ffffff"
     inkscape:document-units="mm"
     showgrid="false"
     showborder="false"
     inkscape:zoom="0.25039646"
     inkscape:cx="7869.5202"
     inkscape:cy="-1787.1658"
     inkscape:window-width="1920"
     inkscape:window-height="991"
     inkscape:window-x="-9"
     inkscape:window-y="-9"
     inkscape:window-maximized="1"
     inkscape:current-layer="layer1" /><defs
     id="defs2" /><g
     inkscape:label="Layer 1"
     inkscape:groupmode="layer"
     id="layer1"
     transform="translate(-1851.4727,-106.55143)"><path
       style="fill:#ffffff"
       d="m 1856.4972,166.64694 c -2.2992,-0.46839 -4.1545,-2.13028 -4.7686,-4.27157 -0.1602,-0.55842 -0.2575,-10.41309 -0.2559,-25.90613 v -25.00488 l 0.6304,-1.35388 c 0.6816,-1.46397 1.948,-2.59848 3.5311,-3.16341 1.4781,-0.5275 185.9802,-0.5275 187.4583,0 1.4536,0.51871 2.7674,1.61778 3.4415,2.87898 l 0.5929,1.10915 0.076,25.00312 c 0.053,17.49951 -0.011,25.36044 -0.2145,26.19375 -0.4456,1.82656 -1.4449,3.06899 -3.1367,3.8998 l -1.4873,0.73041 -92.4719,0.0367 c -50.8595,0.0202 -92.8886,-0.0482 -93.3979,-0.152 z m 41.4073,-8.75797 c 3.3761,-0.24809 6.1887,-0.60908 7.3133,-0.93867 0.5792,-0.16973 1.4526,-2.25901 1.823,-4.36058 0.3949,-2.24103 0.6407,-13.22695 0.3975,-17.76789 l -0.1922,-3.58721 -1.5335,-0.30169 c -1.1718,-0.23054 -1.8216,-0.55536 -2.7554,-1.37728 l -1.2219,-1.07559 -0.7687,0.82295 c -2.0903,2.23764 -6.3933,2.15249 -8.2143,-0.16255 l -0.5241,-0.66624 -1.2131,1.06779 c -2.2984,2.02317 -5.3541,2.02317 -7.6525,0 l -1.2131,-1.06779 -0.5241,0.66624 c -0.8247,1.04844 -2.73,1.84194 -4.3871,1.82705 -1.5598,-0.014 -3.4341,-0.88852 -4.1767,-1.94872 -0.3912,-0.55853 -0.3998,-0.55578 -1.6175,0.51606 -0.6733,0.59267 -1.5734,1.14482 -2.0001,1.22699 -0.4268,0.0822 -1.1219,0.21591 -1.5446,0.29719 l -0.7686,0.1478 -0.1899,3.03823 c -0.2988,4.78324 0.018,17.11346 0.4941,19.1991 0.5856,2.56775 1.0504,3.32742 2.227,3.63953 0.852,0.22603 4.1381,0.60403 7.8696,0.90525 2.6629,0.21496 17.0477,0.14438 20.3729,-0.1 z m -26.8552,-4.67585 c -1.8257,-0.6713 -1.8006,-2.49848 0.1295,-9.42411 0.7989,-2.86644 1.7407,-5.78048 2.093,-6.47567 0.8496,-1.67658 2.749,-3.40765 3.9956,-3.64152 1.6746,-0.31415 3.5637,0.0551 4.6184,0.9026 l 0.954,0.7667 4.3574,0.007 c 4.2482,0.007 4.3743,-0.009 5.0387,-0.63266 1.2106,-1.13635 3.8954,-1.52004 5.6109,-0.80187 1.1174,0.46776 2.7362,2.28465 3.4143,3.83201 1.0171,2.32119 3.1414,10.18543 3.2996,12.21573 0.1353,1.73661 0.088,2.06657 -0.3806,2.64269 -0.4732,0.58206 -0.7758,0.66867 -2.6117,0.74761 -3.7474,0.16115 -6.0755,-1.55858 -6.824,-5.04076 l -0.1557,-0.72442 -2.4432,0.19525 c -3.1158,0.24902 -6.8015,0.24866 -9.9267,-9.5e-4 -1.8673,-0.14913 -2.4789,-0.11739 -2.5495,0.13229 -0.051,0.18068 -0.2288,0.82915 -0.3948,1.44105 -0.6694,2.4672 -3.081,4.05557 -6.1086,4.02335 -0.9459,-0.0101 -1.8984,-0.084 -2.1166,-0.16423 z m 18.5208,-8.66201 v -1.1768 l 1.3665,-0.08 1.3664,-0.08 -2.3739,-2.44739 c -1.3056,-1.34607 -2.5456,-2.44746 -2.7555,-2.44755 -0.2099,-8e-5 -1.4532,1.10125 -2.7629,2.4474 l -2.3812,2.44754 1.389,0.08 1.3891,0.08 v 1.1768 1.1768 h 2.3813 2.3812 z m 58.3406,11.98648 c 2.1961,-0.81901 2.1391,-0.68613 1.3332,-3.106 -0.3933,-1.18109 -0.7947,-2.14321 -0.8919,-2.13806 -0.097,0.005 -0.4743,0.17953 -0.8381,0.3875 -0.8137,0.46514 -2.1658,0.50653 -2.593,0.0794 -0.2224,-0.22248 -0.3175,-1.68746 -0.3175,-4.8948 v -4.57729 h 2.1167 2.1167 v -2.51354 -2.51354 h -2.1167 -2.1167 v -2.38125 -2.38125 h -3.3073 -3.3072 v 2.38125 2.38125 h -1.323 -1.3229 v 2.51354 2.51354 h 1.3044 1.3045 l 0.085,5.77488 0.085,5.77488 0.7265,1.09691 c 0.8045,1.21464 1.7974,1.83221 3.4609,2.15256 1.5077,0.29034 4.0069,0.045 5.6022,-0.54996 z m 15.875,0.11569 c 1.6324,-0.50278 3.306,-1.40236 3.3112,-1.77982 0,-0.15511 -0.4283,-1.31771 -0.9566,-2.58356 l -0.9605,-2.30154 -1.355,0.91248 c -1.1585,0.78021 -1.5779,0.91248 -2.8929,0.91248 -3.0675,0 -4.0233,-1.16282 -4.0233,-4.89479 0,-3.49772 0.804,-4.70237 3.1386,-4.70237 0.8715,0 1.1982,0.1599 1.8682,0.91445 0.4466,0.50295 0.9311,1.11768 1.0766,1.36608 0.2351,0.4014 0.5073,0.28849 2.4474,-1.01528 1.2005,-0.8068 2.1828,-1.56603 2.1828,-1.68717 0,-0.41778 -1.559,-2.37104 -2.4773,-3.10374 -2.1816,-1.74079 -5.4993,-2.1774 -8.8845,-1.16925 -2.3627,0.70367 -3.7119,1.89364 -4.9213,4.3407 -0.8256,1.67059 -0.9716,2.25697 -1.0993,4.41748 -0.3647,6.16608 2.2768,9.89293 7.6539,10.79872 1.7189,0.28955 4.1392,0.11502 5.892,-0.42487 z m 30.0794,0.44249 c 3.1426,-0.87283 3.1348,-5.48342 -0.011,-6.33042 -2.2715,-0.61166 -4.2718,0.87016 -4.2718,3.16464 0,1.8418 1.1424,3.07028 3.175,3.41425 0.073,0.0123 0.5711,-0.0995 1.1075,-0.24847 z m 25.4831,-0.41932 c 3.8217,-1.1469 6.2278,-4.76179 6.2752,-9.42788 0.049,-4.79073 -2.3867,-8.565 -6.3664,-9.8667 -2.0217,-0.66127 -5.7857,-0.43763 -7.737,0.4597 -5.5757,2.56397 -7.0688,11.49925 -2.7283,16.32688 2.5412,2.82644 6.4226,3.74858 10.5565,2.508 z m -4.8374,-5.01148 c -0.9045,-0.63356 -1.3997,-1.83321 -1.5636,-3.78791 -0.2094,-2.49696 0.4224,-4.62588 1.5827,-5.33335 1.6183,-0.98668 3.0635,-0.51224 3.9371,1.29244 1.1514,2.37846 0.5206,7.10816 -1.0609,7.95455 -0.7756,0.41508 -2.2123,0.35269 -2.8953,-0.12573 z m -80.4907,-4.61415 v -9.78958 h -3.3073 -3.3073 v 9.78958 9.78959 h 3.3073 3.3073 z m 42.0688,2.97059 v -6.819 l 0.9469,-0.50996 c 1.3997,-0.75379 2.6863,-0.67212 3.453,0.21917 0.6236,0.72497 0.6271,0.76681 0.6271,7.32896 v 6.59983 h 3.4671 3.467 l -0.1025,-7.34219 c -0.097,-6.95105 -0.1345,-7.41266 -0.7031,-8.66511 -1.266,-2.78855 -2.9579,-3.82302 -6.2608,-3.82806 -1.6942,-0.003 -2.3939,0.12585 -3.5057,0.64348 l -1.389,0.6467 v -3.95658 -3.95658 h -3.3073 -3.3073 v 13.22917 13.22917 h 3.3073 3.3073 z m 28.3104,-2.97059 v -9.78958 h -3.3073 -3.3073 v 9.78958 9.78959 h 3.3073 3.3073 z m -71.8832,-11.67263 c 1.0136,-0.51835 1.4919,-1.3555 1.4981,-2.62214 0.01,-1.97831 -1.2841,-3.16773 -3.4459,-3.16773 -3.0214,0 -4.533,3.4115 -2.374,5.35782 0.6759,0.60939 1.0456,0.7276 2.2755,0.7276 0.8076,0 1.7285,-0.133 2.0463,-0.29555 z m 70.9151,-0.24781 c 2.3172,-1.82273 0.8637,-5.5477 -2.1611,-5.53816 -1.4505,0.005 -2.3097,0.38995 -3.0284,1.35825 -1.0008,1.34823 -0.4605,3.889 0.9475,4.45615 1.145,0.46123 3.4993,0.30792 4.242,-0.27624 z m -133.5418,-6.04824 c 1.1193,-0.50829 2.2749,-1.79086 2.6124,-2.89937 0.1817,-0.59676 0.2135,-0.57725 0.6506,0.39915 1.7379,3.88167 6.7628,3.96549 8.6246,0.14385 l 0.5413,-1.11108 0.3326,0.91985 c 0.4802,1.32786 2.2261,2.72751 3.673,2.94449 2.2435,0.33643 4.4622,-0.85513 5.3707,-2.88446 l 0.4617,-1.03127 0.3092,0.93673 c 0.17,0.51519 0.7716,1.35456 1.3369,1.86526 2.3536,2.1263 5.7847,1.35512 7.3199,-1.64521 l 0.5719,-1.11779 0.2941,0.89104 c 0.3622,1.09746 1.4195,2.14053 2.7207,2.68408 3.3178,1.38591 6.5498,-1.3643 6.5555,-5.57821 0,-1.44857 -1.3915,-3.53659 -4.1441,-6.20977 l -2.0722,-2.01244 -8.5572,-0.1928 c -4.7065,-0.10603 -12.7195,-0.10597 -17.8067,1.4e-4 l -9.2494,0.19292 -1.2433,0.99415 c -1.3602,1.08756 -3.8841,4.01312 -4.6168,5.35144 -0.893,1.63111 -0.4717,4.58868 0.8715,6.11852 1.5195,1.73059 3.4136,2.16238 5.4431,1.24078 z m 73.7477,-5.41444 c 0.3849,-0.22584 0.535,-0.21777 0.6261,0.0336 0.066,0.1819 0.4075,0.33073 0.7592,0.33073 0.6371,0 0.6394,-0.0103 0.6394,-2.89011 0,-2.72324 -0.04,-2.93712 -0.685,-3.70417 -0.6023,-0.71573 -0.8499,-0.81393 -2.0505,-0.81306 -0.9141,6.6e-4 -1.6628,0.18217 -2.2644,0.54898 -0.8931,0.54445 -0.8956,0.55135 -0.3798,1.0671 0.4817,0.48168 0.5751,0.48991 1.2957,0.1141 1.0673,-0.55656 1.6011,-0.51053 2.0846,0.17978 0.6598,0.94206 0.4961,1.2028 -0.8733,1.39116 -2.4873,0.34208 -3.7636,1.77782 -2.9187,3.28315 0.5947,1.05955 2.3736,1.27619 3.7667,0.4587 z m -2.0323,-0.87035 c -0.3518,-0.3518 -0.1646,-1.13422 0.3354,-1.4018 0.2815,-0.15064 0.8768,-0.27389 1.3229,-0.27389 0.6269,0 0.8112,0.11681 0.8112,0.51416 0,0.88695 -1.8663,1.76475 -2.4695,1.16153 z m 16.553,0.77239 c 0.4112,-0.3626 0.4743,-0.35962 0.6236,0.0294 0.091,0.23809 0.4511,0.43289 0.7993,0.43289 0.6297,0 0.6332,-0.0159 0.6332,-2.93077 0,-2.88649 -0.012,-2.94245 -0.7734,-3.70416 -0.6417,-0.64161 -0.9911,-0.77323 -2.0506,-0.77241 -0.8246,6.4e-4 -1.5956,0.19516 -2.176,0.54898 -0.893,0.54445 -0.8955,0.55135 -0.3797,1.0671 0.4816,0.48168 0.5751,0.48991 1.2957,0.1141 1.3297,-0.69339 1.9433,-0.47786 2.3413,0.82238 0.158,0.51607 0.05,0.58623 -1.1554,0.75204 -2.5446,0.34998 -3.8199,1.90731 -2.8162,3.43913 0.6415,0.97903 2.6509,1.08959 3.6582,0.20128 z m -1.9807,-0.75218 c -0.3557,-0.35572 -0.2053,-1.14349 0.2664,-1.39508 0.2547,-0.13582 0.8202,-0.28884 1.2568,-0.34003 0.64,-0.0751 0.809,0.0139 0.8727,0.45923 0.043,0.30378 -0.087,0.69003 -0.2898,0.85833 -0.4793,0.39777 -1.8534,0.6702 -2.1061,0.41755 z m 16.0048,0.98586 c 0.7839,-0.39963 0.9938,-0.42474 1.106,-0.1323 0.076,0.19853 0.4502,0.36095 0.831,0.36095 h 0.6926 l -0.089,-3.06619 c -0.086,-2.98307 -0.1091,-3.08349 -0.8313,-3.70417 -0.9578,-0.82315 -2.8392,-0.87207 -4.0949,-0.10648 -0.7571,0.46161 -0.8308,0.59984 -0.575,1.07787 0.1998,0.37336 0.4347,0.4892 0.7362,0.36299 1.7223,-0.72109 1.9243,-0.76245 2.3677,-0.48486 0.2509,0.15712 0.4931,0.59273 0.5382,0.96801 0.075,0.6248 -0.02,0.69769 -1.1315,0.86431 -1.7374,0.26054 -2.8984,1.11213 -3.0039,2.20349 -0.1227,1.26783 0.5318,1.89333 2.2116,2.11358 0.1511,0.0198 0.7101,-0.18592 1.2422,-0.4572 z m -1.6215,-1.19302 c -0.1658,-0.19984 -0.2268,-0.55805 -0.1355,-0.79603 0.1495,-0.3894 0.4206,-0.49864 2.0259,-0.81617 0.3508,-0.0694 0.4631,0.0845 0.4631,0.63492 0,1.07742 -1.6885,1.77855 -2.3535,0.97728 z m 10.3457,1.41091 c 1.2508,-0.3474 2.0402,-1.44724 2.2381,-3.11846 0.3788,-3.19836 -1.7074,-5.14274 -4.1581,-3.87544 l -0.7806,0.40367 v -1.99117 -1.99117 h -0.926 -0.9261 v 5.29167 5.29166 h 0.7782 c 0.4279,0 0.8467,-0.11095 0.9305,-0.24656 0.088,-0.14317 0.4556,-0.0884 0.8755,0.13066 0.8628,0.45007 0.7485,0.44397 1.9685,0.10514 z m -2.3831,-1.62965 c -0.1795,-0.17951 -0.3175,-1.03934 -0.3175,-1.97828 0,-1.47824 0.073,-1.70827 0.6596,-2.09292 0.9046,-0.59276 1.8398,-0.30777 2.2515,0.68616 0.3712,0.89605 0.2205,2.72037 -0.2739,3.31604 -0.3871,0.46649 -1.8778,0.51083 -2.3197,0.069 z m 14.1094,1.61102 c 1.4918,-0.37562 1.9653,-0.88969 1.369,-1.48602 -0.3554,-0.35545 -0.5497,-0.3762 -1.1142,-0.11901 -0.7666,0.34928 -1.964,0.40355 -2.4051,0.10902 -0.3468,-0.23156 -0.8995,-1.23449 -0.8995,-1.6322 0,-0.17877 0.8746,-0.28198 2.3896,-0.28198 2.6896,0 2.8926,-0.14504 2.3794,-1.70022 -0.6871,-2.08172 -3.0584,-2.90618 -4.9834,-1.73258 -2.5517,1.55576 -1.9598,6.00385 0.9136,6.86492 1.0341,0.3099 1.0328,0.30991 2.3506,-0.0219 z m -3.0498,-4.73311 c 0,-0.46584 1.0398,-1.32291 1.6049,-1.32291 0.8446,0 1.5701,0.49334 1.5701,1.06764 0,0.45899 -0.1859,0.51986 -1.5875,0.51986 -0.8819,0 -1.5875,-0.1176 -1.5875,-0.26459 z m 15.0813,4.26693 c 2.0835,-1.47444 2.055,-5.09325 -0.05,-6.37681 -1.0372,-0.63241 -2.8287,-0.70264 -3.8923,-0.1526 -2.0632,1.06689 -2.4655,4.56105 -0.7146,6.20596 1.2149,1.14134 3.297,1.28595 4.6572,0.32345 z m -3.278,-1.23272 c -0.9975,-0.99743 -0.7283,-3.43132 0.4525,-4.09254 0.63,-0.35278 0.7873,-0.35278 1.4152,0 0.8564,0.48118 1.2581,1.56692 1.0298,2.78382 -0.2168,1.15522 -0.7828,1.7141 -1.7362,1.7141 -0.4158,0 -0.9384,-0.18242 -1.1613,-0.40538 z m -49.0668,-1.54536 c 1.7714,-4.3985 1.7203,-4.13468 0.8012,-4.13468 -0.9882,0 -1.1287,0.19434 -2.0557,2.84427 -0.4199,1.20055 -0.836,2.18281 -0.9246,2.18281 -0.089,0 -0.3123,-0.50601 -0.4971,-1.12448 -0.1847,-0.61846 -0.5693,-1.74955 -0.8546,-2.51354 -0.4872,-1.30469 -0.5738,-1.38906 -1.4257,-1.38906 -0.4989,0 -0.9071,0.0576 -0.9071,0.12796 0,0.16126 2.6457,6.80151 2.8265,7.09409 0.073,0.11886 0.5022,0.17963 0.9528,0.13505 0.7819,-0.0774 0.8767,-0.22402 2.0843,-3.22242 z m 11.5402,-0.36437 -0.074,-3.63802 -0.8599,-0.0829 -0.8599,-0.0829 v 3.72093 3.72093 h 0.9335 0.9336 z m 3.4983,-1.65364 v -5.29167 h -0.926 -0.9261 v 5.29167 5.29166 h 0.9261 0.926 z m 19.05,0 v -5.29167 h -0.926 -0.9261 v 5.29167 5.29166 h 0.9261 0.926 z m 23.0188,2.54564 v -2.74603 l 0.825,-0.34174 c 1.4475,-0.59957 1.6776,-0.20575 1.7636,3.0177 l 0.075,2.81609 h 0.9171 0.9171 v -2.79552 c 0,-2.78823 -0.2055,-3.6365 -1.0354,-4.27367 -0.6043,-0.46395 -2.1831,-0.41156 -2.9084,0.0965 -0.5775,0.40447 -0.6395,0.40447 -0.8658,0 -0.1341,-0.2396 -0.5355,-0.43564 -0.8921,-0.43564 h -0.6483 v 3.70417 3.70416 h 0.926 0.9261 z m -45.5587,-6.70394 c -0.1772,-1.47656 -1.8413,-1.46028 -2.018,0.0197 -0.064,0.53428 0.063,0.75837 0.5292,0.93424 0.8883,0.33521 1.5896,-0.1142 1.4888,-0.95399 z"
       id="path2" /></g></svg>
